<svg width="36" height="36" viewBox="0 0 36 36" fill="none" xmlns="http://www.w3.org/2000/svg">
<path d="M0.963484 12.7284C1.76002 10.3769 3.07216 8.21845 4.8035 6.38921C5.09625 6.07988 5.55557 5.96962 5.96681 6.10999L10.1044 7.52213C11.2261 7.90478 12.4604 7.34695 12.8613 6.27621C12.9007 6.17091 12.931 6.06275 12.952 5.95293L13.7403 1.82292C13.8186 1.41229 14.149 1.08747 14.5767 1.00056C15.8282 0.746314 17.1112 0.617004 18.4111 0.617004C19.7102 0.617004 20.9925 0.746168 22.2432 1.00009C22.6708 1.08692 23.0012 1.41154 23.0797 1.82202L23.8702 5.95276C24.0839 7.07135 25.207 7.81278 26.3791 7.60881C26.4944 7.58874 26.6076 7.55977 26.7178 7.52219L30.8554 6.10999C31.2666 5.96962 31.7258 6.07988 32.0186 6.38921C33.7501 8.21845 35.0621 10.3769 35.8589 12.7284C35.9931 13.1251 35.8635 13.56 35.5305 13.8298L32.1769 16.5476C31.269 17.2836 31.1579 18.5828 31.9288 19.4496C32.0046 19.5348 32.0877 19.614 32.1769 19.6863L35.5305 22.4042C35.8635 22.674 35.9931 23.1089 35.8589 23.5056C35.0621 25.8572 33.7501 28.0157 32.0186 29.8447C31.7258 30.154 31.2666 30.2643 30.8554 30.124L26.7178 28.7118C25.5963 28.3293 24.3619 28.8872 23.961 29.9577C23.9216 30.063 23.8912 30.1712 23.8701 30.2815L23.0797 34.412C23.0012 34.8225 22.6708 35.147 22.2432 35.2339C20.9925 35.4878 19.7102 35.617 18.4111 35.617C17.1112 35.617 15.8282 35.4878 14.5767 35.2333C14.149 35.1464 13.8186 34.8217 13.7403 34.4111L12.952 30.2812C12.7383 29.1626 11.6151 28.4212 10.4432 28.6252C10.328 28.6453 10.2146 28.6742 10.1045 28.7118L5.96681 30.124C5.55557 30.2643 5.09625 30.154 4.8035 29.8447C3.07216 28.0157 1.76002 25.8572 0.963484 23.5056C0.829114 23.1089 0.958675 22.674 1.29166 22.4042L4.64527 19.6864C5.55329 18.9504 5.66435 17.6511 4.89334 16.7844C4.81753 16.6992 4.73456 16.62 4.6453 16.5476L1.29166 13.8298C0.958675 13.56 0.829114 13.1251 0.963484 12.7284ZM13.0847 18.1168C13.0847 20.9367 15.4692 23.2227 18.4108 23.2227C21.3523 23.2227 23.7368 20.9367 23.7368 18.1168C23.7368 15.2969 21.3523 13.0109 18.4108 13.0109C15.4692 13.0109 13.0847 15.2969 13.0847 18.1168Z" fill="#685147"/>
</svg>
