<svg width="34" height="34" viewBox="0 0 34 34" fill="none" xmlns="http://www.w3.org/2000/svg">
<path d="M24.0833 17C24.0833 20.912 20.912 24.0833 17 24.0833C13.088 24.0833 9.91666 20.912 9.91666 17C9.91666 13.088 13.088 9.91667 17 9.91667C20.912 9.91667 24.0833 13.088 24.0833 17Z" fill="white"/>
<path fill-rule="evenodd" clip-rule="evenodd" d="M17 1.77083C17.5868 1.77083 18.0625 2.24654 18.0625 2.83333V5.66667C18.0625 6.25347 17.5868 6.72917 17 6.72917C16.4132 6.72917 15.9375 6.25347 15.9375 5.66667V2.83333C15.9375 2.24654 16.4132 1.77083 17 1.77083ZM5.19726 5.26446C5.59322 4.83139 6.26529 4.8013 6.69836 5.19725L9.84621 8.07534C10.2793 8.4713 10.3094 9.14335 9.91342 9.57643C9.51746 10.0095 8.84539 10.0396 8.41232 9.64363L5.26447 6.76556C4.8314 6.3696 4.80131 5.69754 5.19726 5.26446ZM28.8028 5.26446C29.1988 5.69754 29.1686 6.3696 28.7355 6.76556L25.5877 9.64363C25.1546 10.0396 24.4826 10.0095 24.0866 9.57643C23.6906 9.14335 23.7207 8.4713 24.1537 8.07534L27.3017 5.19725C27.7348 4.8013 28.4067 4.83139 28.8028 5.26446ZM1.77084 17C1.77084 16.4132 2.24655 15.9375 2.83334 15.9375H5.66668C6.25347 15.9375 6.72918 16.4132 6.72918 17C6.72918 17.5868 6.25347 18.0625 5.66668 18.0625H2.83334C2.24655 18.0625 1.77084 17.5868 1.77084 17ZM27.2708 17C27.2708 16.4132 27.7466 15.9375 28.3333 15.9375H31.1667C31.7535 15.9375 32.2292 16.4132 32.2292 17C32.2292 17.5868 31.7535 18.0625 31.1667 18.0625H28.3333C27.7466 18.0625 27.2708 17.5868 27.2708 17ZM24.1195 24.119C24.5344 23.7041 25.2072 23.7041 25.6221 24.119L28.77 27.2673C29.1849 27.6822 29.1848 28.355 28.7698 28.77C28.3549 29.1849 27.6821 29.1848 27.2673 28.7698L24.1195 25.6216C23.7045 25.2066 23.7045 24.534 24.1195 24.119ZM9.88079 24.1192C10.2957 24.5341 10.2957 25.2069 9.88079 25.6218L6.73263 28.77C6.31771 29.1849 5.64497 29.1849 5.23003 28.77C4.8151 28.355 4.8151 27.6822 5.23003 27.2674L8.37819 24.1192C8.79312 23.7042 9.46585 23.7042 9.88079 24.1192ZM17 27.2708C17.5868 27.2708 18.0625 27.7466 18.0625 28.3333V31.1667C18.0625 31.7535 17.5868 32.2292 17 32.2292C16.4132 32.2292 15.9375 31.7535 15.9375 31.1667V28.3333C15.9375 27.7466 16.4132 27.2708 17 27.2708Z" fill="white"/>
</svg>
